<?xml version="1.0" standalone="no"?>
<!DOCTYPE svg PUBLIC "-//W3C//DTD SVG 20010904//EN"
 "http://www.w3.org/TR/2001/REC-SVG-20010904/DTD/svg10.dtd">
<svg version="1.0" xmlns="http://www.w3.org/2000/svg"
 width="170.000000pt" height="195.000000pt" viewBox="0 0 170.000000 195.000000"
 preserveAspectRatio="xMidYMid meet">

<g transform="translate(0.000000,195.000000) scale(0.100000,-0.100000)"
fill="#000000" stroke="none">
<path d="M63 1863 c-26 -25 -28 -41 -11 -78 8 -18 24 -29 55 -37 27 -6 53 -22
68 -40 30 -35 28 16 25 -803 -2 -606 -4 -637 -41 -661 -8 -5 -32 -16 -54 -24
-51 -20 -72 -58 -53 -97 l13 -28 330 -1 c375 -2 378 -1 373 64 -3 34 -8 39
-57 63 -84 40 -85 46 -89 316 -2 155 0 239 8 252 9 18 20 21 70 21 107 0 104
4 284 -340 55 -105 119 -212 149 -249 134 -164 350 -207 525 -105 43 25 43 26
40 77 l-3 51 -45 11 c-95 25 -154 73 -242 203 -57 85 -228 382 -228 397 0 5
40 29 88 52 205 97 290 239 280 465 -4 94 -8 111 -41 180 -77 161 -251 268
-507 313 -78 14 -169 18 -505 19 l-410 1 -22 -22z m878 -165 c30 -14 71 -40
92 -57 79 -70 120 -222 100 -374 -20 -147 -75 -233 -180 -280 -63 -28 -207
-51 -261 -41 -62 12 -62 14 -62 379 0 181 3 341 7 354 10 38 56 52 159 48 70
-3 103 -10 145 -29z"/>
</g>
</svg>
